# Blender 3.3.1
# www.blender.org
o Circle
v -0.032330 0.059473 -0.771829
v 0.032330 0.059473 -0.771829
v 0.000000 0.000000 -0.712343
v -0.249051 0.059473 -0.437205
v -0.243919 0.000000 -0.335725
v -0.338846 0.059473 -0.371965
v -0.724063 0.059473 -0.269256
v -0.677478 0.000000 -0.220126
v -0.744044 0.059473 -0.207761
v -0.492768 0.059473 0.101758
v -0.394669 0.000000 0.128236
v -0.458469 0.059473 0.207318
v -0.479825 0.059473 0.605420
v -0.418705 0.000000 0.576297
v -0.427515 0.059473 0.643426
v -0.055496 0.059473 0.500095
v 0.000000 0.000000 0.414979
v 0.055496 0.059473 0.500095
v 0.427515 0.059473 0.643426
v 0.418705 0.000000 0.576297
v 0.479825 0.059473 0.605420
v 0.458469 0.059473 0.207318
v 0.394669 0.000000 0.128236
v 0.492768 0.059473 0.101758
v 0.744044 0.059473 -0.207761
v 0.677478 0.000000 -0.220126
v 0.724063 0.059473 -0.269256
v 0.338846 0.059473 -0.371965
v 0.243919 0.000000 -0.335725
v 0.249051 0.059473 -0.437205
v -0.032330 0.129452 -0.771829
v 0.000000 0.188925 -0.712343
v 0.032330 0.129452 -0.771829
v -0.249051 0.129452 -0.437205
v -0.338846 0.129452 -0.371965
v -0.243919 0.188925 -0.335725
v -0.724063 0.129452 -0.269256
v -0.744044 0.129452 -0.207761
v -0.677478 0.188925 -0.220126
v -0.492768 0.129452 0.101758
v -0.458469 0.129452 0.207318
v -0.394669 0.188925 0.128236
v -0.479825 0.129452 0.605420
v -0.427515 0.129452 0.643426
v -0.418705 0.188925 0.576297
v -0.055496 0.129452 0.500095
v 0.055496 0.129452 0.500095
v 0.000000 0.188925 0.414979
v 0.427515 0.129452 0.643426
v 0.479825 0.129452 0.605420
v 0.418705 0.188925 0.576297
v 0.458469 0.129452 0.207318
v 0.492768 0.129452 0.101758
v 0.394669 0.188925 0.128236
v 0.744044 0.129452 -0.207761
v 0.724063 0.129452 -0.269256
v 0.677478 0.188925 -0.220126
v 0.338846 0.129452 -0.371965
v 0.249051 0.129452 -0.437205
v 0.243919 0.188925 -0.335725
vn 0.8393 -0.0000 -0.5436
vn 0.2576 -0.0000 -0.9662
vn -0.3595 -0.0000 0.9331
vn -0.7764 -0.0000 0.6303
vn -0.0000 1.0000 -0.0000
vn 0.9986 -0.0000 -0.0536
vn -0.9986 -0.0000 -0.0536
vn -0.2576 -0.0000 -0.9662
vn 0.7764 -0.0000 0.6303
vn 0.3595 -0.0000 0.9331
vn -0.0000 -1.0000 -0.0000
vn -0.0000 -0.7072 -0.7070
vn -0.3367 -0.8197 -0.4634
vn -0.6724 -0.7072 -0.2185
vn -0.5447 -0.8197 0.1770
vn -0.4156 -0.7072 0.5720
vn -0.0000 -0.8197 0.5728
vn 0.4156 -0.7072 0.5720
vn 0.5447 -0.8197 0.1770
vn 0.6724 -0.7072 -0.2185
vn 0.3367 -0.8197 -0.4634
vn -0.0000 0.7072 -0.7070
vn -0.3367 0.8197 -0.4634
vn -0.6724 0.7072 -0.2185
vn -0.5447 0.8197 0.1770
vn -0.4156 0.7072 0.5720
vn -0.0000 0.8197 0.5728
vn 0.4156 0.7072 0.5720
vn 0.5447 0.8197 0.1770
vn 0.6724 0.7072 -0.2185
vn 0.3367 0.8197 -0.4634
vn -0.5935 -0.7071 -0.3844
vn -0.1822 -0.7071 -0.6832
vn -0.5490 -0.7071 0.4457
vn -0.7061 -0.7071 -0.0379
vn 0.2542 -0.7071 0.6598
vn -0.2542 -0.7071 0.6598
vn 0.7061 -0.7071 -0.0379
vn 0.5490 -0.7071 0.4457
vn 0.1822 -0.7071 -0.6832
vn 0.5935 -0.7071 -0.3844
vn -0.5935 0.7071 -0.3844
vn -0.1822 0.7071 -0.6832
vn -0.5490 0.7071 0.4457
vn -0.7061 0.7071 -0.0379
vn 0.2542 0.7071 0.6598
vn -0.2542 0.7071 0.6598
vn 0.7061 0.7071 -0.0379
vn 0.5490 0.7071 0.4457
vn 0.1822 0.7071 -0.6832
vn 0.5935 0.7071 -0.3844
vn 0.9511 -0.0000 -0.3090
vn 0.9511 -0.0000 0.3090
vn -0.0000 -0.0000 1.0000
vn -0.5878 -0.0000 0.8090
vn -0.9511 -0.0000 -0.3090
vn -0.5878 -0.0000 -0.8090
vn 0.5878 -0.0000 -0.8090
vn 0.5878 -0.0000 0.8090
vn -0.9511 -0.0000 0.3090
vn -0.0000 -0.0000 -1.0000
vn -0.8393 -0.0000 -0.5436
vt 0.353497 0.963145
vt 0.392832 0.975926
vt 0.384923 0.933347
vt 0.287799 0.716742
vt 0.310980 0.656022
vt 0.246069 0.659305
vt 0.032027 0.520680
vt 0.070078 0.500000
vt 0.032027 0.479320
vt 0.246069 0.340695
vt 0.310980 0.343978
vt 0.287799 0.283258
vt 0.353497 0.036855
vt 0.384923 0.066653
vt 0.392832 0.024074
vt 0.590815 0.184802
vt 0.607752 0.247551
vt 0.658337 0.206741
vt 0.912982 0.193081
vt 0.894353 0.232177
vt 0.937292 0.226541
vt 0.845611 0.464502
vt 0.791167 0.500000
vt 0.845611 0.535498
vt 0.937292 0.773459
vt 0.894353 0.767823
vt 0.912982 0.806919
vt 0.658336 0.793259
vt 0.607752 0.752449
vt 0.590815 0.815198
vt 0.353497 0.963145
vt 0.384923 0.933347
vt 0.392832 0.975926
vt 0.287799 0.716742
vt 0.246069 0.659305
vt 0.310980 0.656022
vt 0.032027 0.520680
vt 0.032027 0.479320
vt 0.070078 0.500000
vt 0.246069 0.340695
vt 0.287799 0.283258
vt 0.310980 0.343978
vt 0.353497 0.036855
vt 0.392832 0.024074
vt 0.384923 0.066653
vt 0.590815 0.184802
vt 0.658337 0.206741
vt 0.607752 0.247551
vt 0.912982 0.193081
vt 0.937292 0.226541
vt 0.894353 0.232177
vt 0.845611 0.464502
vt 0.845611 0.535498
vt 0.791167 0.500000
vt 0.937292 0.773459
vt 0.912982 0.806919
vt 0.894353 0.767824
vt 0.658336 0.793259
vt 0.590815 0.815198
vt 0.607752 0.752449
s 0
f 30/30/1 2/2/1 33/33/1 59/59/1
f 27/27/2 28/28/2 58/58/2 56/56/2
f 18/18/3 19/19/3 49/49/3 47/47/3
f 9/9/4 10/10/4 40/40/4 38/38/4
f 36/36/5 39/39/5 42/42/5 45/45/5 48/48/5 51/51/5 54/54/5 57/57/5 60/60/5 32/32/5
f 21/21/6 22/22/6 52/52/6 50/50/6
f 12/12/7 13/13/7 43/43/7 41/41/7
f 6/6/8 7/7/8 37/37/8 35/35/8
f 24/24/9 25/25/9 55/55/9 53/53/9
f 15/15/10 16/16/10 46/46/10 44/44/10
f 5/5/11 3/3/11 29/29/11 26/26/11 23/23/11 20/20/11 17/17/11 14/14/11 11/11/11 8/8/11
f 1/1/12 2/2/12 3/3/12
f 4/4/13 5/5/13 6/6/13
f 7/7/14 8/8/14 9/9/14
f 10/10/15 11/11/15 12/12/15
f 13/13/16 14/14/16 15/15/16
f 16/16/17 17/17/17 18/18/17
f 19/19/18 20/20/18 21/21/18
f 22/22/19 23/23/19 24/24/19
f 25/25/20 26/26/20 27/27/20
f 28/28/21 29/29/21 30/30/21
f 31/31/22 32/32/22 33/33/22
f 34/34/23 35/35/23 36/36/23
f 37/37/24 38/38/24 39/39/24
f 40/40/25 41/41/25 42/42/25
f 43/43/26 44/44/26 45/45/26
f 46/46/27 47/47/27 48/48/27
f 49/49/28 50/50/28 51/51/28
f 52/52/29 53/53/29 54/54/29
f 55/55/30 56/56/30 57/57/30
f 58/58/31 59/59/31 60/60/31
f 4/4/32 1/1/32 3/3/32 5/5/32
f 7/7/33 6/6/33 5/5/33 8/8/33
f 10/10/34 9/9/34 8/8/34 11/11/34
f 13/13/35 12/12/35 11/11/35 14/14/35
f 16/16/36 15/15/36 14/14/36 17/17/36
f 19/19/37 18/18/37 17/17/37 20/20/37
f 22/22/38 21/21/38 20/20/38 23/23/38
f 25/25/39 24/24/39 23/23/39 26/26/39
f 28/28/40 27/27/40 26/26/40 29/29/40
f 2/2/41 30/30/41 29/29/41 3/3/41
f 36/36/42 32/32/42 31/31/42 34/34/42
f 39/39/43 36/36/43 35/35/43 37/37/43
f 42/42/44 39/39/44 38/38/44 40/40/44
f 45/45/45 42/42/45 41/41/45 43/43/45
f 48/48/46 45/45/46 44/44/46 46/46/46
f 51/51/47 48/48/47 47/47/47 49/49/47
f 54/54/48 51/51/48 50/50/48 52/52/48
f 57/57/49 54/54/49 53/53/49 55/55/49
f 60/60/50 57/57/50 56/56/50 58/58/50
f 32/32/51 60/60/51 59/59/51 33/33/51
f 27/27/52 56/56/52 55/55/52 25/25/52
f 52/52/53 22/22/53 24/24/53 53/53/53
f 18/18/54 47/47/54 46/46/54 16/16/54
f 43/43/55 13/13/55 15/15/55 44/44/55
f 9/9/56 38/38/56 37/37/56 7/7/56
f 34/34/57 4/4/57 6/6/57 35/35/57
f 30/30/58 59/59/58 58/58/58 28/28/58
f 21/21/59 50/50/59 49/49/59 19/19/59
f 12/12/60 41/41/60 40/40/60 10/10/60
f 1/1/61 31/31/61 33/33/61 2/2/61
f 1/1/62 4/4/62 34/34/62 31/31/62
